# 3ds Max Wavefront OBJ Exporter v0.97b - (c)2007 guruware
# File Created: 13.11.2016 22:44:01

#
# object Rectangle001
#

v  1.000000000000 1.000000000000 0.000000103316
v  0.000000000000 1.000000000000 0.000000103316
v  0.000000000000 0.000000000000 -0.000000059605
v  1.000000000000 0.000000000000 -0.000000059605
# 4 vertices

vn 0.000000000000 -0.000000162921 1.000000000000
# 1 vertex normals

vt 1.000000000000 1.000000000000 0.500000000000
vt 0.000000000000 1.000000000000 0.500000000000
vt 0.000000000000 0.000000000000 0.500000000000
vt 1.000000000000 0.000000000000 0.500000000000
# 4 texture coords

o Rectangle001
g Rectangle001
f 1/1/1 2/2/1 3/3/1 
f 3/3/1 4/4/1 1/1/1 
# 2 faces

